<?xml version="1.0" encoding="UTF-8" standalone="no"?>
<svg
   width="72"
   height="72"
   viewBox="0 0 72 72"
   version="1.1"
   id="svg1"
   sodipodi:docname="app-icon.svg"
   inkscape:version="1.4 (86a8ad7, 2024-10-11)"
   inkscape:export-filename="Actions\Views\action-view-effects@2x.png"
   inkscape:export-xdpi="192"
   inkscape:export-ydpi="192"
   xml:space="preserve"
   xmlns:inkscape="http://www.inkscape.org/namespaces/inkscape"
   xmlns:sodipodi="http://sodipodi.sourceforge.net/DTD/sodipodi-0.dtd"
   xmlns="http://www.w3.org/2000/svg"
   xmlns:svg="http://www.w3.org/2000/svg"><defs
     id="defs1" /><sodipodi:namedview
     id="namedview1"
     pagecolor="#ffffff"
     bordercolor="#000000"
     borderopacity="0.25"
     inkscape:showpageshadow="2"
     inkscape:pageopacity="0.0"
     inkscape:pagecheckerboard="true"
     inkscape:deskcolor="#d1d1d1"
     inkscape:zoom="8.8515627"
     inkscape:cx="27.84819"
     inkscape:cy="39.14563"
     inkscape:window-width="1718"
     inkscape:window-height="1341"
     inkscape:window-x="1712"
     inkscape:window-y="1350"
     inkscape:window-maximized="0"
     inkscape:current-layer="svg1"
     showborder="true"
     labelstyle="default"
     inkscape:antialias-rendering="true" /><path
     style="fill:#ffffff;fill-opacity:1;stroke-width:0.110545;stroke-linecap:round;stroke-miterlimit:100"
     d="m -18.243601,-57.589606 9.5825323,9.318192 H 10.788182 c 1.180744,0.01982 1.154309,1.744683 0,1.724857 H 8.4553293 l -8.202894,5.471503 1.616864,-5.448741 h -11.037669 l -8.6450863,27.748387 14.4525243,-9.39911 3.509191,-12.444082 10.5577187,13.55793 h 9.474544 c 0.157306,0.0046 0.180772,0.08015 0.105147,0.228977 -0.409624,0.806044 -1.142283,1.258577 -1.867801,1.241155 H 8.8414453 l -8.633704,11.763392 7.593334,-3.178759 H 20.879588 c 3.70851,-0.190621 8.684619,-2.398411 10.289662,-7.712293 l 10.322577,-30.922656 -13.986345,9.051636 -6.65438,18.430389 -6.673071,-9.121736 c 11.558863,-4.410262 11.388753,-19.243023 1.49394,-20.322259 z"
     id="path1-2"
     sodipodi:nodetypes="cccccccccccccscccccccccccc" /><g
     id="g5"
     transform="translate(-0.83517068,30.627471)"><rect
       style="fill:#ff0000;fill-opacity:1;stroke:none;stroke-width:1.88976;stroke-linecap:round;stroke-miterlimit:100"
       id="rect4"
       width="11.297441"
       height="5.7616944"
       x="14.008385"
       y="51.177402" /><rect
       style="fill:#00ff00;fill-opacity:1;stroke:none;stroke-width:1.88976;stroke-linecap:round;stroke-miterlimit:100"
       id="rect4-2"
       width="11.297441"
       height="5.7616944"
       x="30.35128"
       y="51.177402" /><rect
       style="fill:#0000ff;fill-opacity:1;stroke:none;stroke-width:1.88976;stroke-linecap:round;stroke-miterlimit:100"
       id="rect4-4"
       width="11.297441"
       height="5.7616944"
       x="46.694176"
       y="51.177402" /></g><path
     style="fill:#ffffff;fill-opacity:1;stroke-width:0.0940286;stroke-linecap:round;stroke-miterlimit:100"
     d="m 51.507726,-63.028473 8.150821,7.925975 h 16.543368 c 1.004331,0.01686 0.981846,1.484013 0,1.467149 H 74.21761 l -6.977312,4.654014 1.375291,-4.634653 h -9.388548 l -7.353438,23.602544 12.293195,-7.994804 2.984889,-10.584831 8.980306,11.532261 h 8.058967 c 0.133803,0.0039 0.153763,0.06818 0.08944,0.194766 -0.348422,0.685614 -0.971616,1.070535 -1.588735,1.055716 H 74.54604 l -7.343755,10.005842 6.458825,-2.703826 h 11.124473 c 3.154427,-0.16214 7.387063,-2.040068 8.752299,-6.560011 l 8.780298,-26.30255 -11.896671,7.699245 -5.660159,15.676733 -5.676058,-7.758871 c 9.831871,-3.751332 9.687177,-16.367953 1.270733,-17.285942 z"
     id="path1"
     sodipodi:nodetypes="cccccccccccccscccccccccccc" /><path
     style="fill:none;fill-opacity:1;stroke:#ffffff;stroke-width:3.782;stroke-linecap:round;stroke-linejoin:round;stroke-miterlimit:100;stroke-dasharray:none;stroke-opacity:1;paint-order:normal"
     d="m 90.968051,-8.0151766 -10.52252,11.2526 10.52252,11.2525996"
     id="path5"
     sodipodi:nodetypes="ccc" /><g
     id="g7"
     transform="matrix(0.84474497,0,0,0.84474497,87.102508,-27.516922)"><rect
       style="fill:#ff0000;fill-opacity:1;stroke:#ff0000;stroke-width:3.79577;stroke-linecap:round;stroke-linejoin:round;stroke-miterlimit:100;stroke-dasharray:none;stroke-opacity:1;paint-order:normal"
       id="rect6"
       width="16.204233"
       height="16.204233"
       x="17.066019"
       y="16.162224" /><rect
       style="fill:#00ff00;fill-opacity:1;stroke:#00ff00;stroke-width:3.79577;stroke-linecap:round;stroke-linejoin:round;stroke-miterlimit:100;stroke-dasharray:none;stroke-opacity:1;paint-order:normal"
       id="rect6-5"
       width="16.204233"
       height="16.204233"
       x="42.212093"
       y="16.162224" /><rect
       style="fill:#0000ff;fill-opacity:1;stroke:#0000ff;stroke-width:3.79577;stroke-linecap:round;stroke-linejoin:round;stroke-miterlimit:100;stroke-dasharray:none;stroke-opacity:1;paint-order:normal"
       id="rect6-8"
       width="16.204233"
       height="16.204233"
       x="17.066017"
       y="40.446869" /><rect
       style="fill:#ff00ff;fill-opacity:1;stroke:#ff00ff;stroke-width:3.79577;stroke-linecap:round;stroke-linejoin:round;stroke-miterlimit:100;stroke-dasharray:none;stroke-opacity:1;paint-order:normal"
       id="rect6-5-9"
       width="16.204233"
       height="16.204233"
       x="42.212093"
       y="40.446869" /></g><path
     style="fill:none;fill-opacity:1;stroke:#ffffff;stroke-width:3.782;stroke-linecap:round;stroke-linejoin:round;stroke-miterlimit:100;stroke-dasharray:none;stroke-opacity:1;paint-order:normal"
     d="m 109.04384,40.575464 h 12.31421 l 5.7617,6.891438 h 23.04677 v 23.724624 h -41.12268 z"
     id="path8"
     sodipodi:nodetypes="ccccccc" /><path
     d="m 154.51284,107.58119 c -4.7716,-9.884042 -15.45091,-14.882863 -25.67578,-13.065108 l 2.72663,-5.112439 c 0.68166,-1.136097 0.22722,-2.61302 -0.90887,-3.181068 -1.1361,-0.681659 -2.61303,-0.227222 -3.18108,0.908874 l -5.56687,10.338477 c 0,0 -1.2497,2.044978 0.68166,2.953854 l 10.33848,5.56687 c 0.34083,0.22723 0.79527,0.34083 1.1361,0.34083 0.79527,0 1.70414,-0.45444 2.04497,-1.24971 0.68165,-1.13609 0.22722,-2.61302 -0.90888,-3.18106 l -5.33965,-2.953854 c 8.06628,-1.363319 16.4734,2.726624 20.22252,10.452084 4.54439,9.42961 0.56805,20.79057 -8.86155,25.22135 -4.54439,2.15858 -9.65683,2.49941 -14.42844,0.79527 -4.7716,-1.70415 -8.63433,-5.11244 -10.79291,-9.65683 -2.15858,-4.54438 -2.49941,-9.65681 -0.79527,-14.42842 0.45444,-1.24971 -0.22721,-2.61303 -1.47692,-3.06746 -1.1361,-0.22723 -2.49942,0.45443 -2.95385,1.70414 -2.04498,6.02132 -1.70415,12.38346 1.02248,18.06394 2.72663,5.68048 7.49824,9.99765 13.51955,12.15623 2.61303,0.90888 5.22605,1.36332 7.83907,1.36332 3.5219,0 7.04379,-0.79527 10.22487,-2.38581 11.8154,-5.68048 16.81423,-19.88169 11.13374,-31.58348 z"
     id="path1-5"
     style="fill:#ffffff;fill-opacity:1;stroke-width:2.84024" /><g
     id="g13"
     transform="matrix(0.10712343,0,0,0.10716267,70.599349,75.221254)"
     style="fill:none;fill-opacity:1;stroke:#ffffff;stroke-opacity:1"><rect
       x="80"
       y="80"
       width="352"
       height="352"
       rx="48"
       ry="48"
       style="fill:none;fill-opacity:1;stroke:#ffffff;stroke-width:32px;stroke-linejoin:round;stroke-opacity:1"
       id="rect1" /><rect
       x="144"
       y="144"
       width="224"
       height="224"
       rx="16"
       ry="16"
       style="fill:none;fill-opacity:1;stroke:#ffffff;stroke-width:32px;stroke-linejoin:round;stroke-opacity:1"
       id="rect2" /><line
       x1="256"
       y1="80"
       x2="256"
       y2="48"
       style="fill:none;fill-opacity:1;stroke:#ffffff;stroke-width:32px;stroke-linecap:round;stroke-linejoin:round;stroke-opacity:1"
       id="line2" /><line
       x1="336"
       y1="80"
       x2="336"
       y2="48"
       style="fill:none;fill-opacity:1;stroke:#ffffff;stroke-width:32px;stroke-linecap:round;stroke-linejoin:round;stroke-opacity:1"
       id="line3" /><line
       x1="176"
       y1="80"
       x2="176"
       y2="48"
       style="fill:none;fill-opacity:1;stroke:#ffffff;stroke-width:32px;stroke-linecap:round;stroke-linejoin:round;stroke-opacity:1"
       id="line4" /><line
       x1="256"
       y1="464"
       x2="256"
       y2="432"
       style="fill:none;fill-opacity:1;stroke:#ffffff;stroke-width:32px;stroke-linecap:round;stroke-linejoin:round;stroke-opacity:1"
       id="line5" /><line
       x1="336"
       y1="464"
       x2="336"
       y2="432"
       style="fill:none;fill-opacity:1;stroke:#ffffff;stroke-width:32px;stroke-linecap:round;stroke-linejoin:round;stroke-opacity:1"
       id="line6" /><line
       x1="176"
       y1="464"
       x2="176"
       y2="432"
       style="fill:none;fill-opacity:1;stroke:#ffffff;stroke-width:32px;stroke-linecap:round;stroke-linejoin:round;stroke-opacity:1"
       id="line7" /><line
       x1="432"
       y1="256"
       x2="464"
       y2="256"
       style="fill:none;fill-opacity:1;stroke:#ffffff;stroke-width:32px;stroke-linecap:round;stroke-linejoin:round;stroke-opacity:1"
       id="line8" /><line
       x1="432"
       y1="336"
       x2="464"
       y2="336"
       style="fill:none;fill-opacity:1;stroke:#ffffff;stroke-width:32px;stroke-linecap:round;stroke-linejoin:round;stroke-opacity:1"
       id="line9" /><line
       x1="432"
       y1="176"
       x2="464"
       y2="176"
       style="fill:none;fill-opacity:1;stroke:#ffffff;stroke-width:32px;stroke-linecap:round;stroke-linejoin:round;stroke-opacity:1"
       id="line10" /><line
       x1="48"
       y1="256"
       x2="80"
       y2="256"
       style="fill:none;fill-opacity:1;stroke:#ffffff;stroke-width:32px;stroke-linecap:round;stroke-linejoin:round;stroke-opacity:1"
       id="line11" /><line
       x1="48"
       y1="336"
       x2="80"
       y2="336"
       style="fill:none;fill-opacity:1;stroke:#ffffff;stroke-width:32px;stroke-linecap:round;stroke-linejoin:round;stroke-opacity:1"
       id="line12" /><line
       x1="48"
       y1="176"
       x2="80"
       y2="176"
       style="fill:none;fill-opacity:1;stroke:#ffffff;stroke-width:32px;stroke-linecap:round;stroke-linejoin:round;stroke-opacity:1"
       id="line13" /></g><path
     d="m -35.898746,148.77317 q 0,1.248 0.86396,2.16 0.86395,0.912 2.15989,0.864 h 2.97585 q 0,3.744 2.63987,6.336 2.63987,2.592 6.38368,2.64 h 10.0315 q -3.21584,-2.256 -5.18374,-6 h -4.84776 q -1.24794,0 -2.15989,-0.864 -0.91196,-0.864 -0.86396,-2.112 v -30 q 0,-1.248 0.86396,-2.112 0.86395,-0.864 2.15989,-0.912 H 3.1233035 q 1.19994,0 2.11189,0.912 0.91196,0.912 0.86396,2.112 v 10.848 q 3.74381,1.96799 5.9997005,5.18399 v -16.032 q 0,-3.74399 -2.6398705,-6.38399 -2.63987,-2.64 -6.33568,-2.64 H -20.875496 q -3.74381,0 -6.38368,2.64 -2.63987,2.64 -2.63987,6.38399 h -2.97585 q -1.24794,0 -2.15989,0.86401 -0.91196,0.864 -0.86396,2.112 0.048,1.248 0.86396,2.16 0.81596,0.912 2.15989,0.864 h 2.97585 v 6 h -2.97585 q -1.24794,0 -2.15989,0.864 -0.91196,0.86399 -0.86396,2.112 0.048,1.248 0.86396,2.16 0.81596,0.912 2.15989,0.864 h 2.97585 v 6 h -2.97585 q -1.24794,0 -2.15989,0.864 -0.91196,0.86399 -0.86396,2.112 z m 15.02325,0 h 3.11984 q 0,-0.096 -0.048,-0.624 -0.048,-0.528 -0.096,-0.864 -0.048,-0.336 0.096,-0.816 0.14399,-0.48 0.048,-0.672 h -3.11984 z m 0,-6 h 3.69581 q 0.43198,-1.632 1.15195,-2.976 h -4.84776 z m 0,-6 h 6.86366 q 1.48792,-1.824 3.16784,-2.976 h -10.0315 z m 0,-6 H 3.1233035 v -2.976 H -20.875496 Z m 0,-6 H 3.1233035 v -2.976 H -20.875496 Z m 5.9997,22.512 q 0,2.736 1.05595,5.232 1.05594,2.496 2.87985,4.32 1.8239095,1.824 4.3197895,2.88 2.49587,1.056 5.23173,1.056 2.73587,0 5.23174,-1.056 2.49588,-1.056 4.31979,-2.88 1.82391,-1.824 2.8798505,-4.32 1.05595,-2.496 1.05595,-5.232 0,-2.736 -1.05595,-5.232 -1.0559405,-2.496 -2.8798505,-4.32 -1.82391,-1.824 -4.31979,-2.88 -2.49587,-1.056 -5.23174,-1.056 -2.73586,0 -5.23173,1.056 -2.49588,1.05599 -4.3197895,2.88 -1.82391,1.824 -2.87985,4.32 -1.05595,2.496 -1.05595,5.232 z m 5.9996995,0 q 0,-3.12 2.15989,-5.28 2.15989,-2.16001 5.32773,-2.208 3.16785,-0.048 5.27974,2.208 2.11189,2.256 2.20789,5.28 0,3.12 -2.20789,5.28 -2.20789,2.16 -5.27974,2.208 -3.07184,0.048 -5.32773,-2.208 -2.25589,-2.256 -2.15989,-5.28 z m 5.9997,0 q 0,0.624 0.43198,1.056 0.43198,0.432 1.05594,0.432 h 2.97586 q 0.62396,0 1.05594,-0.432 0.43198,-0.43201 0.47998,-1.056 0.048,-0.624 -0.47998,-1.056 -0.52797,-0.432 -1.05594,-0.432 H 0.09945353 v -1.488 q 0,-0.624 -0.43198,-1.056 -0.43198,-0.432 -1.05595003,-0.48 -0.62396,-0.048 -1.05594,0.48 -0.43198,0.528 -0.43198,1.056 z"
     id="path1-4"
     style="fill:#ffffff;fill-opacity:1;stroke:none;stroke-width:1.49996;stroke-opacity:1" /><g
     id="File / Files"
     transform="matrix(1.9260268,0,0,1.7436473,-82.462564,14.624253)"
     style="fill:none;stroke:#ffffff;stroke-opacity:1"><path
       id="Vector"
       d="m 9,6 h 0.33687 c 0.24459,0 0.36698,0 0.48206,0.02763 0.10204,0.0245 0.19997,0.065 0.28947,0.11983 0.1009,0.06182 0.1875,0.14845 0.3604,0.32129 l 3.0627,3.06274 c 0.1729,0.17295 0.2589,0.25895 0.3208,0.35986 0.0548,0.08947 0.0959,0.18725 0.1204,0.28935 C 14,10.2946 14,10.4155 14,10.6552 V 18 M 9,6 H 4.59961 C 4.03956,6 3.75981,6 3.5459,6.10899 3.35774,6.20487 3.20487,6.35774 3.10899,6.5459 3,6.75981 3,7.04004 3,7.6001 v 11.8 c 0,0.56 0,0.8397 0.10899,1.0536 0.09588,0.1882 0.24875,0.3415 0.43691,0.4374 C 3.7596,21 4.03902,21 4.598,21 h 7.8031 c 0.5589,0 0.8394,0 1.0531,-0.1089 0.1881,-0.0959 0.3406,-0.249 0.4364,-0.4372 C 13.9996,20.24 14,19.9599 14,19.3999 V 18 M 9,6 v 3.4 c 0,0.56005 0,0.8399 0.10899,1.0538 0.09588,0.1882 0.24875,0.3414 0.43691,0.4373 C 9.7596,11 10.039,11 10.598,11 h 3.4016 M 10,6.0001 v -1.4 C 10,4.04005 10,3.75981 10.109,3.5459 10.2049,3.35774 10.3577,3.20487 10.5459,3.10899 10.7598,3 11.0396,3 11.5996,3 H 16 m 0,0 h 0.3369 c 0.2446,0 0.3669,0 0.482,0.02763 0.1021,0.0245 0.2,0.065 0.2895,0.11983 0.1009,0.06182 0.1875,0.14846 0.3604,0.32129 l 3.0627,3.06274 c 0.1729,0.17295 0.2589,0.25895 0.3208,0.35986 0.0548,0.08947 0.0959,0.18728 0.1204,0.28931 C 21,7.29458 21,7.41552 21,7.65515 v 8.74475 c 0,0.56 -4e-4,0.8401 -0.1094,1.054 -0.0958,0.1882 -0.2477,0.3413 -0.4358,0.4372 C 20.2411,18 19.961,18 19.402,18 H 14 M 16,3 v 3.4 c 0,0.56005 0,0.83988 0.109,1.0538 0.0959,0.18816 0.2487,0.34144 0.4369,0.43731 C 16.7596,8 17.039,8 17.598,8 h 3.4016"
       stroke="#000000"
       stroke-width="2"
       stroke-linecap="round"
       stroke-linejoin="round"
       style="fill:none;stroke:#ffffff;stroke-opacity:1" /></g><path
     d="m 12,45.419922 c 0,1.238567 0.291547,3.507418 1.373047,4.121094 l 20.365234,9.779296 c 1.7985,0.906894 2.575391,0.906894 4.525391,0 L 58.626953,49.541016 C 59.631953,49.041103 60,46.68733 60,45.419922 c -1.3095,0.698596 -3.163219,1.69902 -3.199219,1.707031 L 36,57.369141 15.199219,47.126953 C 15.271219,47.175022 13.359,46.249906 12,45.419922 Z"
     style=""
     id="path12" /><path
     d="m 12,35.175781 c 0,1.240169 0.291547,3.509372 1.373047,4.123047 l 20.365234,9.777344 c 1.7985,0.906893 2.575391,0.906893 4.525391,0 L 58.626953,39.298828 C 59.631953,38.797313 60,36.443189 60,35.175781 58.6905,35.87598 56.836781,36.875152 56.800781,36.884766 L 36,47.126953 15.199219,36.884766 C 15.271219,36.931232 13.359,36.005765 12,35.175781 Z"
     style=""
     id="path11" /><path
     d="m 36.074219,12 c -0.7065,0.0066 -1.436688,0.26035 -2.335938,0.740234 L 13.373047,24.224609 c -1.5495,1.067123 -1.599,3.924787 0,4.830078 l 20.365234,9.779297 c 1.7985,0.905292 2.575391,0.905292 4.525391,0 l 20.363281,-9.779297 c 1.5,-0.746665 1.5495,-3.921582 0,-4.830078 L 38.263672,12.740234 C 37.463422,12.233912 36.780719,11.993391 36.074219,12 Z"
     id="path10"
     style="stroke:none;stroke-opacity:1;fill:#00ff00;fill-opacity:1" /></svg>
